<svg id="currency_converter" data-name="currency converter" xmlns="http://www.w3.org/2000/svg" viewBox="0 0 25.112 25.112">
  <g id="Group_72" data-name="Group 72" transform="translate(1.004 17.773)">
    <path id="Path_108" data-name="Path 108" d="M2.938,45.35a.534.534,0,0,1-.253-.042.556.556,0,0,1-.253-.716l1.053-2.107a.556.556,0,0,1,.716-.253l2.107,1.053a.537.537,0,1,1-.463.969l-1.643-.8-.8,1.6A.518.518,0,0,1,2.938,45.35Z" transform="translate(-2.382 -42.182)"/>
    <path id="Path_109" data-name="Path 109" d="M10.723,48.471h0c-3.287,0-5.393-2.865-5.73-5.688a.524.524,0,0,1,.463-.59.548.548,0,0,1,.59.463c.295,2.36,2.022,4.761,4.719,4.761a.512.512,0,0,1,.506.506A.531.531,0,0,1,10.723,48.471Z" transform="translate(-3.89 -42.185)"/>
  </g>
  <g id="Group_73" data-name="Group 73" transform="translate(16.77 1.096)">
    <path id="Path_110" data-name="Path 110" d="M49.744,12.992a.534.534,0,0,1-.253-.042L47.385,11.9a.537.537,0,1,1,.463-.969l1.643.8.8-1.643a.537.537,0,1,1,.969.463l-1.053,2.107A.537.537,0,0,1,49.744,12.992Z" transform="translate(-44.014 -6.756)"/>
    <path id="Path_111" data-name="Path 111" d="M45.53,8.836a.539.539,0,0,1-.506-.463c-.337-2.36-2.065-4.761-4.719-4.761a.512.512,0,0,1-.506-.506.542.542,0,0,1,.506-.506c3.287,0,5.393,2.865,5.73,5.688a.524.524,0,0,1-.463.59A.041.041,0,0,0,45.53,8.836Z" transform="translate(-39.8 -2.6)"/>
  </g>
  <path id="Path_112" data-name="Path 112" d="M33.408,36.8c-2.065,0-3.666-1.138-3.666-2.612a.512.512,0,0,1,.506-.506.544.544,0,0,1,.506.506c0,.843,1.18,1.559,2.612,1.559s2.612-.716,2.612-1.559-1.18-1.559-2.612-1.559c-2.065,0-3.666-1.138-3.666-2.612S31.3,27.4,33.366,27.4s3.666,1.138,3.666,2.612a.506.506,0,0,1-1.011,0c0-.843-1.18-1.559-2.612-1.559S30.8,29.17,30.8,30.012s1.18,1.559,2.612,1.559c2.065,0,3.666,1.138,3.666,2.612C37.074,35.616,35.472,36.8,33.408,36.8Z" transform="translate(-17.186 -15.855)"/>
  <path id="Path_113" data-name="Path 113" d="M37.806,36.361a.512.512,0,0,1-.506-.506V25.406a.512.512,0,0,1,.506-.506.544.544,0,0,1,.506.506V35.855A.487.487,0,0,1,37.806,36.361Z" transform="translate(-21.584 -14.408)"/>
  <path id="Path_114" data-name="Path 114" d="M7.837,15.674a7.837,7.837,0,1,1,7.837-7.837.512.512,0,0,1-.506.506.544.544,0,0,1-.506-.506,6.8,6.8,0,1,0-6.826,6.784.512.512,0,0,1,.506.506A.55.55,0,0,1,7.837,15.674Z"/>
  <path id="Path_115" data-name="Path 115" d="M26.29,35.181a8.89,8.89,0,1,1,8.89-8.89A8.919,8.919,0,0,1,26.29,35.181Zm0-16.728a7.837,7.837,0,1,0,7.837,7.837A7.849,7.849,0,0,0,26.29,18.453Z" transform="translate(-10.069 -10.069)"/>
  <path id="Path_116" data-name="Path 116" d="M16.506,15.092H13.978a2.288,2.288,0,0,0,.506-1.433,1.58,1.58,0,0,0-.042-.463h1.264a.463.463,0,0,0,0-.927H14.189c-.042-.084-.042-.126-.084-.211a4.424,4.424,0,0,1-.337-1.475A1.382,1.382,0,0,1,15.2,9.362h0a2.5,2.5,0,0,1,1.6.59.477.477,0,1,0,.674-.674A3.29,3.29,0,0,0,15.2,8.393a2.268,2.268,0,0,0-2.4,2.149v.042a4.672,4.672,0,0,0,.379,1.685H12.8a.463.463,0,1,0,0,.927h.632a1.89,1.89,0,0,1,.042.463,2.2,2.2,0,0,1-.969,1.517.477.477,0,0,0-.126.674.519.519,0,0,0,.421.211h3.708a.468.468,0,0,0,.463-.463A.506.506,0,0,0,16.506,15.092Z" transform="translate(-7.11 -4.854)"/>
</svg>
