<svg xmlns="http://www.w3.org/2000/svg" viewBox="0 0 17.207 17.207">
  <defs>
    <style>
      .cls-1 {
        fill: #707070;
      }
    </style>
  </defs>
  <path id="Facebook_1_" class="cls-1" d="M17.207,16.269a.94.94,0,0,1-.938.938H11.862V10.549h2.25L14.44,7.97H11.862V6.329c0-.75.188-1.266,1.266-1.266h1.36V2.719a15.358,15.358,0,0,0-2.016-.094A3.128,3.128,0,0,0,9.142,6.048V7.97H6.892v2.579h2.25v6.658H.938A.94.94,0,0,1,0,16.269V.938A.94.94,0,0,1,.938,0H16.269a.94.94,0,0,1,.938.938Z" transform="translate(0)"/>
</svg>
