<svg id="Gas_Price" data-name="Gas Price" xmlns="http://www.w3.org/2000/svg" viewBox="0 0 22 24">
  <g id="Group_99" data-name="Group 99" transform="translate(3)">
    <g id="Group_98" data-name="Group 98">
      <path id="Path_131" data-name="Path 131" d="M20,20H6V1.5A1.473,1.473,0,0,1,7.5,0h11A1.473,1.473,0,0,1,20,1.5ZM7,19H19V1.5a.472.472,0,0,0-.5-.5H7.5a.472.472,0,0,0-.5.5Z" transform="translate(-6)"/>
    </g>
  </g>
  <g id="Group_101" data-name="Group 101" transform="translate(0 21)">
    <g id="Group_100" data-name="Group 100">
      <path id="Path_132" data-name="Path 132" d="M20,45H0V43a1,1,0,0,1,1-1H19a1,1,0,0,1,1,1ZM1,44H19V43H1Z" transform="translate(0 -42)"/>
    </g>
  </g>
  <g id="Group_103" data-name="Group 103" transform="translate(1.5 19)">
    <g id="Group_102" data-name="Group 102">
      <path id="Path_133" data-name="Path 133" d="M20,41H3V39a1,1,0,0,1,1-1H19a1,1,0,0,1,1,1ZM4,40H19V39H4Z" transform="translate(-3 -38)"/>
    </g>
  </g>
  <g id="Group_105" data-name="Group 105" transform="translate(5 2)">
    <g id="Group_104" data-name="Group 104">
      <path id="Path_134" data-name="Path 134" d="M19,11H11a1,1,0,0,1-1-1V5a1,1,0,0,1,1-1h8a1,1,0,0,1,1,1v5A1,1,0,0,1,19,11ZM11,5v5h8V5Z" transform="translate(-10 -4)"/>
    </g>
  </g>
  <g id="Group_107" data-name="Group 107" transform="translate(16.5 2)">
    <g id="Group_106" data-name="Group 106">
      <path id="Path_135" data-name="Path 135" d="M36.75,18.5A1.772,1.772,0,0,1,35,16.75V14a.472.472,0,0,0-.5-.5H33v-1h1.5A1.473,1.473,0,0,1,36,14v2.75a.75.75,0,0,0,1.5,0V6.3L35.35,5H33V4h2.65L38.5,5.7V16.75A1.772,1.772,0,0,1,36.75,18.5Z" transform="translate(-33 -4)"/>
    </g>
  </g>
  <g id="Group_109" data-name="Group 109" transform="translate(18.5 2.5)">
    <g id="Group_108" data-name="Group 108">
      <path id="Path_136" data-name="Path 136" d="M40,10.5H38.5A1.473,1.473,0,0,1,37,9V5h1V9a.472.472,0,0,0,.5.5H40Z" transform="translate(-37 -5)"/>
    </g>
  </g>
  <g id="Group_111" data-name="Group 111" transform="translate(7.5 10.15)">
    <g id="Group_110" data-name="Group 110">
      <path id="Path_137" data-name="Path 137" d="M17.5,27.65a2.53,2.53,0,0,1-2.5-2.6c0-1.25,1.75-3.7,2.1-4.2l.4-.55.4.55c.35.5,2.1,2.9,2.1,4.2A2.53,2.53,0,0,1,17.5,27.65Zm0-5.65A8.284,8.284,0,0,0,16,25a1.529,1.529,0,0,0,1.5,1.6A1.56,1.56,0,0,0,19,25,8.684,8.684,0,0,0,17.5,22Z" transform="translate(-15 -20.3)"/>
    </g>
  </g>
</svg>
