<svg xmlns="http://www.w3.org/2000/svg" viewBox="0 0 86.225 17.909">
  <defs>
    <style>
      .cls-1 {
        fill: #aeb756;
      }

      .cls-2, .cls-3 {
        fill: #707070;
      }

      .cls-3 {
        opacity: 0.7;
      }
    </style>
  </defs>
  <g id="Group_90" data-name="Group 90" transform="translate(0)">
    <path id="Twitter_1_" class="cls-1" d="M92.272,2.981a6.521,6.521,0,0,1-2.3.891A3.614,3.614,0,0,0,87.349,2.7a3.663,3.663,0,0,0-3.61,3.7,5.166,5.166,0,0,0,.094.844A10.152,10.152,0,0,1,76.425,3.4a3.6,3.6,0,0,0-.469,1.875A3.9,3.9,0,0,0,77.55,8.373,3.333,3.333,0,0,1,75.909,7.9v.047a3.634,3.634,0,0,0,2.907,3.61,3.023,3.023,0,0,1-.938.141,2.883,2.883,0,0,1-.656-.047A3.678,3.678,0,0,0,80.6,14.234a7.077,7.077,0,0,1-4.454,1.594,5.1,5.1,0,0,1-.844-.047,10.1,10.1,0,0,0,5.532,1.641c6.611,0,10.268-5.626,10.268-10.5V6.451a6.974,6.974,0,0,0,1.782-1.922,6.435,6.435,0,0,1-2.063.563A4.614,4.614,0,0,0,92.272,2.981Z" transform="translate(-39.996 -1.434)"/>
    <path id="Facebook_1_" class="cls-2" d="M17.207,16.269a.94.94,0,0,1-.938.938H11.862V10.549h2.25L14.44,7.97H11.862V6.329c0-.75.188-1.266,1.266-1.266h1.36V2.719a15.358,15.358,0,0,0-2.016-.094A3.128,3.128,0,0,0,9.142,6.048V7.97H6.892v2.579h2.25v6.658H.938A.94.94,0,0,1,0,16.269V.938A.94.94,0,0,1,.938,0H16.269a.94.94,0,0,1,.938.938Z"/>
    <g id="Group_28" data-name="Group 28" transform="translate(66.293 0.665)">
      <path id="Path_58" data-name="Path 58" class="cls-2" d="M159.964,1.6,142.195,8.583s-.844.281-.8.8.75.75.75.75l4.454,1.5,10.737-6.8s.609-.375.609,0c0,0,.094.047-.234.375s-8.439,7.6-8.439,7.6v.141l7.267,5.579a1.156,1.156,0,0,0,1.641-.563l3.141-15.941C161.418.988,159.964,1.6,159.964,1.6Z" transform="translate(-141.396 -1.419)"/>
      <path id="Path_59" data-name="Path 59" class="cls-3" d="M160.476,28.1l-2.907,2.626a.436.436,0,0,1-.469.047l.563-4.876" transform="translate(-149.737 -14.422)"/>
    </g>
  </g>
</svg>
