<svg xmlns="http://www.w3.org/2000/svg" viewBox="0 0 30.149 32.086">
  <defs>
    <style>
      .cls-1 {
        fill: #aeb756;
      }
    </style>
  </defs>
  <g id="Group_94" data-name="Group 94" transform="translate(-0.031)">
    <path id="Path_118" data-name="Path 118" class="cls-1" d="M26.3,5.708A5.708,5.708,0,1,0,32.008,0,5.7,5.7,0,0,0,26.3,5.708Zm10.353,0a4.644,4.644,0,1,1-4.644-4.644A4.66,4.66,0,0,1,36.653,5.708Z" transform="translate(-16.955)"/>
    <path id="Path_119" data-name="Path 119" class="cls-1" d="M26.753,37.186a1.376,1.376,0,0,0-1.808-.567L22.25,38.037c-1.666-1.56-5.6-.851-6.807-.6h0l-.355.106-.355-.106H14.7c-1.241-.284-5.176-.957-6.807.6L5.2,36.619a1.353,1.353,0,0,0-1.808.567L.2,43.32a1.3,1.3,0,0,0-.106,1.028,1.4,1.4,0,0,0,.638.78l3.262,1.7a3.7,3.7,0,0,0,.922,1.95,3.342,3.342,0,0,0,.355.355l-.355.177a2.02,2.02,0,0,0-.957,1.135A1.889,1.889,0,0,0,4.1,51.9a2.02,2.02,0,0,0,1.135.957,1.561,1.561,0,0,0,.567.071,1.69,1.69,0,0,0,.709-.142,1.888,1.888,0,0,0,.213.851,1.838,1.838,0,0,0,1.135.922,1.606,1.606,0,0,0,.567.106,1.922,1.922,0,0,0,.886-.213l1.347-.709a1.877,1.877,0,0,0,1.312,1.773,1.8,1.8,0,0,0,.6.106,1.647,1.647,0,0,0,.815-.213l1.7-.886,1.7.886a1.888,1.888,0,0,0,.851.213,1.985,1.985,0,0,0,1.7-1.028,1.782,1.782,0,0,0,.213-.851l1.347.709a1.922,1.922,0,0,0,.886.213,1.99,1.99,0,0,0,1.7-1.028,1.888,1.888,0,0,0,.213-.851,2.292,2.292,0,0,0,.709.142,3.1,3.1,0,0,0,.567-.071,1.962,1.962,0,0,0,1.135-.922,1.889,1.889,0,0,0,.142-1.454,1.543,1.543,0,0,0-.284-.532,1.764,1.764,0,0,0,.745-.78,1.863,1.863,0,0,0-.461-2.34l3.226-1.7a1.275,1.275,0,0,0,.638-.78,1.3,1.3,0,0,0-.106-1.028ZM5.019,46.3a2.3,2.3,0,0,1,.071-.709.529.529,0,1,0-1.028-.248.6.6,0,0,0-.035.248L1.261,44.135a.384.384,0,0,1-.177-.142.257.257,0,0,1,.035-.213L4.31,37.647a.246.246,0,0,1,.355-.106l2.588,1.347L4.736,43.781a.528.528,0,0,0,.213.709.657.657,0,0,0,.248.071.511.511,0,0,0,.461-.284l2.659-5.141c.035-.035.035-.071.071-.142.674-.957,3.085-1.17,6.027-.532h0l.425.106h0l3.829.993h.071a.13.13,0,0,1,.106.035c0,.071-.035.177-.035.284,0,.071-.035.106-.035.142l-.035.248a1.08,1.08,0,0,1-1.135.709L15.549,40.7l-1.205-.177a.525.525,0,0,0-.6.425.551.551,0,0,0,.177.5l-2.765,1.454c-.035,0-.035.035-.071.035s-.035.035-.071.035L5.586,45.872A2.163,2.163,0,0,0,5.019,46.3ZM18.35,54.1a.84.84,0,0,1-1.1.39l-1.028-.532L18.066,53a.719.719,0,0,1,.355.461A1.025,1.025,0,0,1,18.35,54.1Zm4.113-.957a.978.978,0,0,1-.5.425.8.8,0,0,1-.638-.071L19.2,52.4c.425-.213.993-.532,1.844-.957l.071.035,1.028.532A.88.88,0,0,1,22.463,53.14Zm2.588-1.773a.838.838,0,0,1-.5.425.8.8,0,0,1-.638-.071l-1.773-.886.886-.461a6.244,6.244,0,0,0,.815-.5l.142.071c.071.035.177.071.248.106l.425.213a.838.838,0,0,1,.425.5A.606.606,0,0,1,25.051,51.368Zm.6-2.73a.838.838,0,0,1-.5.425h-.284l.319-.319a3.8,3.8,0,0,0,.532-.78h0A.883.883,0,0,1,25.653,48.638Zm3.368-4.644c0,.035-.035.106-.142.142l-2.8,1.454a3.254,3.254,0,0,0-.355-1.135l-1.6-3.085a.523.523,0,1,0-.922.5l1.6,3.085a2.7,2.7,0,0,1,.319,1.489,2.44,2.44,0,0,1-.071.461,2.837,2.837,0,0,1-.6,1.17,5.568,5.568,0,0,1-.851.745h0l-.035.035a6.3,6.3,0,0,1-.957.6L20.8,50.41h0c-.106.035-2.836,1.489-2.943,1.525h0l-4.928,2.553a.712.712,0,0,1-.6.035.838.838,0,0,1-.5-.425.9.9,0,0,1-.071-.674.814.814,0,0,1,.355-.461L15.3,51.3a.035.035,0,0,0,.035-.035l1.064-.567h0l.532-.284a.523.523,0,1,0-.5-.922L14.8,50.34h0c-.142.071-2.978,1.56-2.978,1.56l-.248.142h0l-2.8,1.454a.794.794,0,0,1-.638.035.838.838,0,0,1-.5-.425A.857.857,0,0,1,8,51.97l7.126-3.723.5-.248a.523.523,0,1,0-.5-.922l-.5.248h0L6.189,51.758a.813.813,0,0,1-.638.071.838.838,0,0,1-.5-.425.813.813,0,0,1-.071-.638.838.838,0,0,1,.425-.5l2.517-1.312,2.482-1.276h0l1.95-1.028h0l2.269-1.205h0a.523.523,0,1,0-.5-.922L6.863,48.283a.857.857,0,0,1-1.135-.355.826.826,0,0,1,.355-1.135l5.46-2.872c.035,0,.035-.035.071-.035s.035,0,.071-.035l3.9-2.056,1.879.248c.071,0,.177.035.284.035a2.025,2.025,0,0,0,2.056-1.6l.071-.284a.13.13,0,0,1,.035-.106,1.263,1.263,0,0,0-.142-1.1,1.018,1.018,0,0,0-.78-.425l-1.454-.39c2.092-.213,3.687.071,4.219.851.035.035.035.071.071.106l.567,1.135a.553.553,0,0,0,.461.284.657.657,0,0,0,.248-.071.528.528,0,0,0,.213-.709l-.425-.815,2.588-1.347a.276.276,0,0,1,.355.106l3.191,6.134C29.057,43.887,29.022,43.958,29.022,43.993Z" transform="translate(0 -23.536)"/>
    <path id="Path_120" data-name="Path 120" class="cls-1" d="M38.418,5.067v.355a1.8,1.8,0,0,0-.142,3.439,2.826,2.826,0,0,0,.532.106A.266.266,0,0,1,38.985,9a1.311,1.311,0,0,1,.39.177.846.846,0,0,1,.355.638.727.727,0,0,1-.745.745h-.106a.727.727,0,0,1-.745-.745.567.567,0,0,0-1.135,0,1.863,1.863,0,0,0,1.418,1.808v.5a.567.567,0,0,0,1.135,0v-.532a1.875,1.875,0,0,0,1.276-1.773,2.019,2.019,0,0,0-.815-1.56A2.381,2.381,0,0,0,39.2,7.9a.982.982,0,0,0-.319-.035.526.526,0,0,1-.248-.035.681.681,0,0,1-.461-.638.673.673,0,0,1,.674-.674h.071a.673.673,0,0,1,.674.674.567.567,0,0,0,1.135,0,1.835,1.835,0,0,0-1.241-1.7V5.067a.56.56,0,0,0-.567-.567A.5.5,0,0,0,38.418,5.067Z" transform="translate(-23.862 -2.905)"/>
  </g>
</svg>
