<svg xmlns="http://www.w3.org/2000/svg" viewBox="0 0 26.826 29.687">
  <defs>
    <style>
      .cls-1 {
        fill: #aeb756;
      }
    </style>
  </defs>
  <g id="Group_97" data-name="Group 97" transform="translate(0.012)">
    <path id="Path_129" data-name="Path 129" class="cls-1" d="M26.391,7.446C25.328,5.609,22.33,5.19,18.526,6.06,17.4,2.385,15.529,0,13.4,0s-4,2.353-5.125,6.06c-3.8-.87-6.8-.451-7.865,1.386a3.651,3.651,0,0,0-.258,2.772A11.976,11.976,0,0,0,3.119,14.86,11.481,11.481,0,0,0,.153,19.534a3.416,3.416,0,0,0,.258,2.74c.709,1.225,2.256,1.805,4.352,1.805a16.149,16.149,0,0,0,3.513-.451c1.128,3.707,3,6.06,5.125,6.06s4-2.353,5.125-6.06a16.149,16.149,0,0,0,3.513.451c2.1,0,3.642-.58,4.352-1.805a3.651,3.651,0,0,0,.258-2.772,11.976,11.976,0,0,0-2.965-4.642,11.481,11.481,0,0,0,2.965-4.674A3.416,3.416,0,0,0,26.391,7.446ZM13.4,1.289c1.612,0,2.965,2.127,3.868,5.093A33.774,33.774,0,0,0,13.4,7.8,31.69,31.69,0,0,0,9.533,6.382C10.436,3.417,11.79,1.289,13.4,1.289ZM18.43,14.86a27.212,27.212,0,0,1-.129,2.8c-.774.516-1.547,1.031-2.385,1.483-.806.451-1.644.9-2.514,1.289-.87-.387-1.708-.838-2.514-1.289-.838-.484-1.612-.967-2.385-1.483a27.213,27.213,0,0,1-.129-2.8,27.213,27.213,0,0,1,.129-2.8c.774-.516,1.547-1.031,2.385-1.483.806-.451,1.644-.9,2.514-1.289.87.387,1.708.838,2.514,1.289.838.484,1.612.967,2.385,1.483A27.212,27.212,0,0,1,18.43,14.86Zm1.257-1.805a24.594,24.594,0,0,1,2.16,1.805,24.594,24.594,0,0,1-2.16,1.805c.032-.58.032-1.193.032-1.805S19.719,13.635,19.687,13.055ZM18.107,19.34a23.672,23.672,0,0,1-.516,2.708c-.87-.258-1.741-.548-2.611-.9.516-.258,1.064-.548,1.579-.838C17.076,19.985,17.624,19.663,18.107,19.34Zm-6.286,1.805a22.862,22.862,0,0,1-2.611.9c-.193-.87-.387-1.773-.516-2.708.516.322,1.031.645,1.547.935S11.306,20.855,11.822,21.145Zm-4.706-4.48a24.594,24.594,0,0,1-2.16-1.805,24.594,24.594,0,0,1,2.16-1.805c-.032.58-.032,1.193-.032,1.805S7.084,16.085,7.116,16.665ZM8.7,10.379a23.672,23.672,0,0,1,.516-2.708c.87.258,1.741.548,2.611.9-.516.258-1.064.548-1.579.838C9.727,9.735,9.179,10.057,8.7,10.379Zm7.865-.935c-.516-.29-1.064-.58-1.579-.838a22.862,22.862,0,0,1,2.611-.9c.193.87.387,1.773.516,2.708A15.479,15.479,0,0,0,16.56,9.444ZM1.507,8.091C1.991,7.253,3.119,6.9,4.6,6.9a14.555,14.555,0,0,1,3.32.451,34.359,34.359,0,0,0-.677,4,26.6,26.6,0,0,0-3.191,2.611A10.268,10.268,0,0,1,1.41,9.864,2.314,2.314,0,0,1,1.507,8.091Zm0,13.538a2.316,2.316,0,0,1-.129-1.773,10.268,10.268,0,0,1,2.643-4.094,33.77,33.77,0,0,0,3.191,2.611,28.66,28.66,0,0,0,.677,4C4.859,23.112,2.313,23.015,1.507,21.629ZM13.4,28.43c-1.612,0-2.965-2.127-3.868-5.093A33.773,33.773,0,0,0,13.4,21.919a31.69,31.69,0,0,0,3.868,1.418C16.367,26.3,15.013,28.43,13.4,28.43Zm11.894-6.8c-.806,1.386-3.352,1.483-6.415.741a34.359,34.359,0,0,0,.677-4,26.6,26.6,0,0,0,3.191-2.611,10.268,10.268,0,0,1,2.643,4.094A2.314,2.314,0,0,1,25.3,21.629Zm.1-11.765a10.268,10.268,0,0,1-2.643,4.094,33.77,33.77,0,0,0-3.191-2.611,28.661,28.661,0,0,0-.677-4c3.062-.741,5.609-.645,6.415.741A2.314,2.314,0,0,1,25.392,9.864Z" transform="translate(0)"/>
    <path id="Path_130" data-name="Path 130" class="cls-1" d="M36.043,37.9a2.643,2.643,0,1,0,2.643,2.643A2.655,2.655,0,0,0,36.043,37.9Zm0,4A1.354,1.354,0,1,1,37.4,40.543,1.362,1.362,0,0,1,36.043,41.9Z" transform="translate(-22.642 -25.683)"/>
  </g>
</svg>
