<svg xmlns="http://www.w3.org/2000/svg" viewBox="0 0 20.952 24.3">
  <defs>
    <style>
      .cls-1 {
        fill: #aeb756;
      }
    </style>
  </defs>
  <g id="Group_96" data-name="Group 96" transform="translate(-0.011 -1020.4)">
    <path id="Path_122" data-name="Path 122" class="cls-1" d="M4.2,1022.1c-.2.1-.3.2-.3.4v8.2a3.631,3.631,0,0,0,1.1,2.6l.5.5a2.652,2.652,0,0,0,.6.5h0c.9.7,1.8,1,2.2,1.7a3.018,3.018,0,0,1,.2,2.1h0a1.2,1.2,0,0,1-.7.7h0l-1.4.6c-.2.1-.3.2-.3.4v1.7a.43.43,0,0,0,.4.4h7.8a.43.43,0,0,0,.4-.4v-1.7c0-.2-.1-.4-.3-.4h-.1a2.126,2.126,0,0,1-1.8-.9,2.293,2.293,0,0,1-.2-2,3.125,3.125,0,0,1,.9-1.1h0s1-.7,1.5-1.1a9.961,9.961,0,0,0,1.1-1h0a3.631,3.631,0,0,0,1.1-2.6v-8.2a.43.43,0,0,0-.4-.4H4.2Zm.6.9H16v7.7a2.792,2.792,0,0,1-.8,2h0a9.016,9.016,0,0,1-1,.9c-.4.4-1.4,1-1.4,1.1h0a3.233,3.233,0,0,0-1.2,1.4v.1a3.089,3.089,0,0,0,.3,2.8,2.676,2.676,0,0,0,2.1,1.2v1H7.1v-1l1.1-.5h0a2.584,2.584,0,0,0,1.2-1.1h0a3.65,3.65,0,0,0-.2-2.9c-.6-1.1-1.7-1.4-2.5-2a.78.78,0,0,1-.4-.4l-.5-.5a2.973,2.973,0,0,1-.8-2V1023Z"/>
    <path id="Path_123" data-name="Path 123" class="cls-1" d="M3.9,1020.4a1.3,1.3,0,1,0,0,2.6h13a1.3,1.3,0,1,0,0-2.6Zm0,.8h13a.4.4,0,0,1,0,.8H3.9a.4.4,0,0,1,0-.8Z"/>
    <path id="Path_124" data-name="Path 124" class="cls-1" d="M18.3,1023.4a2.947,2.947,0,0,0-1.3.5,3.028,3.028,0,0,0-.7.5c-.2.1-.2.4-.1.6s.4.2.6.1a2.477,2.477,0,0,1,.6-.4,4.927,4.927,0,0,1,.9-.4,2.026,2.026,0,0,1,1.4.6,1.97,1.97,0,0,1,0,2.1,4.245,4.245,0,0,1-1.5,1.5,5.752,5.752,0,0,0-1.9,1.9v.1a1.275,1.275,0,0,0,0,1.2,1.981,1.981,0,0,0,1.1,1.1,1.275,1.275,0,0,0,1.2,0,1.512,1.512,0,0,0,1.1-1.2.965.965,0,0,0-.2-.8l-.2-.4a.447.447,0,0,0-.8.4.1.1,0,0,0,.1.1.349.349,0,0,1,.1.2c.1.1.1.3.1.2,0,.2-.3.4-.6.6a.446.446,0,0,1-.5,0,1.167,1.167,0,0,1-.6-.6.454.454,0,0,1,0-.5,5.275,5.275,0,0,1,1.7-1.6,5.17,5.17,0,0,0,1.8-1.8,2.919,2.919,0,0,0-.1-3,2.987,2.987,0,0,0-2.2-1Z"/>
    <path id="Path_125" data-name="Path 125" class="cls-1" d="M7,1041.2a3.644,3.644,0,0,0-3.3,2.5l-.1.4-.2.6H17.3l-.2-.6-.1-.4a3.421,3.421,0,0,0-3.3-2.5Zm0,.8h6.8a2.565,2.565,0,0,1,2.3,1.7H4.7A2.859,2.859,0,0,1,7,1042Z"/>
    <path id="Path_126" data-name="Path 126" class="cls-1" d="M2.5,1023.4a2.262,2.262,0,0,0-2.1,1.1,3.436,3.436,0,0,0-.1,3,5.17,5.17,0,0,0,1.8,1.8,6.562,6.562,0,0,1,1.7,1.6.454.454,0,0,1,0,.5,1.167,1.167,0,0,1-.6.6.446.446,0,0,1-.5,0c-.3-.1-.6-.4-.6-.6,0,.1,0-.1.1-.2a.31.31,0,0,0,.1-.2.375.375,0,0,0,0-.6.375.375,0,0,0-.6,0l-.1.1-.2.4a.965.965,0,0,0-.2.8,1.887,1.887,0,0,0,1.1,1.2,1.275,1.275,0,0,0,1.2,0,1.981,1.981,0,0,0,1.1-1.1,1.275,1.275,0,0,0,0-1.2v-.1a5.743,5.743,0,0,0-1.9-1.9,4.245,4.245,0,0,1-1.5-1.5c-.4-1-.4-1.5,0-2.1a1.678,1.678,0,0,1,1.4-.6,3.075,3.075,0,0,1,.9.4,1.006,1.006,0,0,0,.5.2c.2.1.5.1.6-.1s.1-.5-.1-.6h0s-.3-.2-.7-.5a3.323,3.323,0,0,0-1.3-.4Z"/>
    <path id="Path_127" data-name="Path 127" class="cls-1" d="M14.2,1029.9c-.1,0-.2.1-.3.2l-.4.8a9.063,9.063,0,0,1-1.1,1.6l-.1.1c-.2.1-.2.4-.1.6s.4.2.6.1l.1-.1.1-.1a5.935,5.935,0,0,0,1.3-1.8l.4-.8a.481.481,0,0,0-.2-.6Z"/>
    <path id="Path_128" data-name="Path 128" class="cls-1" d="M15.2,1029a.4.4,0,1,1-.4-.4A.43.43,0,0,1,15.2,1029Z"/>
  </g>
</svg>
