<svg xmlns="http://www.w3.org/2000/svg" viewBox="0 0 28.383 27.338">
  <defs>
    <style>
      .cls-1 {
        fill: #aeb756;
      }
    </style>
  </defs>
  <path id="Path_36" data-name="Path 36" class="cls-1" d="M11.268,22.175H17.1a.35.35,0,0,0,.347-.347V17a.35.35,0,0,0-.347-.347H11.268a.35.35,0,0,0-.347.347v4.823A.35.35,0,0,0,11.268,22.175Zm.378-4.823h5.138v4.1H11.646Zm16.486-5.674L14.672.14a.714.714,0,0,0-.914,0L.266,11.678a.677.677,0,0,0-.189.788.711.711,0,0,0,.662.473H4.806V26.588a.733.733,0,0,0,.725.725h17.4a.733.733,0,0,0,.725-.725V12.939h4.066a.711.711,0,0,0,.662-.473A.819.819,0,0,0,28.132,11.678ZM22.206,25.894H6.193V12.939H22.175l.032,12.956ZM22.9,11.52H2.662L14.2,1.622l11.537,9.867H22.9ZM11.268,22.175H17.1a.35.35,0,0,0,.347-.347V17a.35.35,0,0,0-.347-.347H11.268a.35.35,0,0,0-.347.347v4.823A.35.35,0,0,0,11.268,22.175Zm.378-4.823h5.138v4.1H11.646Zm16.486-5.674L14.672.14a.714.714,0,0,0-.914,0L.266,11.678a.677.677,0,0,0-.189.788.711.711,0,0,0,.662.473H4.806V26.588a.733.733,0,0,0,.725.725h17.4a.733.733,0,0,0,.725-.725V12.939h4.066a.711.711,0,0,0,.662-.473A.819.819,0,0,0,28.132,11.678ZM22.206,25.894H6.193V12.939H22.175l.032,12.956ZM22.9,11.52H2.662L14.2,1.622l11.537,9.867H22.9Z" transform="translate(-0.021 0.025)"/>
</svg>
