<svg xmlns="http://www.w3.org/2000/svg" viewBox="0 0 19.296 30.969">
  <defs>
    <style>
      .cls-1 {
        fill: #aeb756;
      }
    </style>
  </defs>
  <path id="Path_81" data-name="Path 81" class="cls-1" d="M18.7,29.659H14.531a33.939,33.939,0,0,0,.238-13.34c-.119-.6-.238-1.191-.357-1.668l2.263-3.216h.715a.6.6,0,0,0,0-1.191H12.864C10.124,4.764,6.075,3.1,5.122,2.74V.6A.545.545,0,0,0,4.645,0a.638.638,0,0,0-.6.6v9.767H2.5a.6.6,0,1,0,0,1.191H4.169V29.778H.6a.6.6,0,1,0,0,1.191H18.7a.638.638,0,0,0,.6-.6C19.177,29.9,18.939,29.659,18.7,29.659ZM13.936,18.581c0,.476.119.953.119,1.429H5.122V18.581Zm-8.814,2.5h8.933v1.31H5.122ZM13.7,16.437a3.3,3.3,0,0,1,.119,1.072h-8.7V16.318h8.457ZM5.122,23.465h8.933a5.8,5.8,0,0,1-.119,1.429H5.122Zm8.338-8.219H5.122V13.817h7.861A6.715,6.715,0,0,0,13.459,15.246ZM5.122,25.966h8.814c-.119.6-.119,1.072-.238,1.548,0-.119-.119-.119-.238-.119H5.122ZM15.365,11.316,14.174,13.1c0-.119-.119-.238-.238-.357-.119-.476-.357-.953-.476-1.429ZM5.122,3.931a13.662,13.662,0,0,1,6.432,6.313H5.122Zm7.028,7.385c.238.476.357.834.6,1.31H5.122v-1.31ZM5.122,28.467h8.338a9.976,9.976,0,0,0-.238,1.191h-8.1Z"/>
</svg>
