<svg xmlns="http://www.w3.org/2000/svg" viewBox="0 0 25.058 25.058">
  <defs>
    <style>
      .cls-1 {
        fill: #aeb756;
      }
    </style>
  </defs>
  <path id="Prayer_times" data-name="Prayer times" class="cls-1" d="M23.241,24.15V21.755a2.458,2.458,0,0,0,.248-1.115,2.854,2.854,0,0,0-1.94-2.683V16.6a.454.454,0,0,0-.908,0v1.362a3.1,3.1,0,0,0-.743.33V17.132a8.043,8.043,0,0,0,1.032-4c0-4.252-3.385-9.206-7.8-9.536V.454a.454.454,0,1,0-.908,0V3.633c-4.5.33-7.885,5.284-7.885,9.536a8.377,8.377,0,0,0,1.032,4v1.156a2.738,2.738,0,0,0-.784-.372V16.6a.454.454,0,1,0-.908,0v1.362a2.8,2.8,0,0,0-1.94,2.683,2.725,2.725,0,0,0,.248,1.115V24.15H.454A.458.458,0,0,0,0,24.6H0a.458.458,0,0,0,.454.454H24.6a.458.458,0,0,0,.454-.454h0a.458.458,0,0,0-.454-.454Zm-17.875,0H2.89V22.086H5.367Zm.165-2.972H2.725a2.072,2.072,0,0,1-.083-.5c0-.826.661-1.816,1.486-1.816s1.486.991,1.486,1.816A2.072,2.072,0,0,1,5.532,21.177ZM16.8,24.15H8.421V23.2H16.8v.949Zm.165-1.858H8.215a5.212,5.212,0,0,1-.537-2.229c0-3.261,2.642-5.779,4.912-5.779S17.5,16.8,17.5,20.063A4.676,4.676,0,0,1,16.967,22.292Zm1.94-5.243v2.436a2.982,2.982,0,0,0-.289,1.156,2.725,2.725,0,0,0,.248,1.115V24.15H17.71V22.87a6.019,6.019,0,0,0,.7-2.807c0-2.931-2.312-6.357-5.367-6.688V10.733a.454.454,0,0,0-.908,0v2.642c-3.055.33-5.367,3.715-5.367,6.688a6.019,6.019,0,0,0,.7,2.807v1.28h-1.2V21.755a2.458,2.458,0,0,0,.248-1.115,2.914,2.914,0,0,0-.248-1.156V17.049a.587.587,0,0,0-.083-.248A7.218,7.218,0,0,1,5.2,13.127c0-4.83,3.963-8.587,7.348-8.587S19.9,8.3,19.9,13.127a7.218,7.218,0,0,1-.991,3.674Zm3.385,7.1H19.815V22.086h2.477Zm.165-2.972H19.65a2.072,2.072,0,0,1-.083-.5c0-.826.661-1.816,1.486-1.816s1.486.991,1.486,1.816A2.072,2.072,0,0,1,22.457,21.177Z"/>
</svg>
