<svg id="Stock" xmlns="http://www.w3.org/2000/svg" viewBox="0 0 38.468 25.05">
  <path id="Path_106" data-name="Path 106" d="M35.609,8.5A2.907,2.907,0,0,0,32.7,11.408a2.948,2.948,0,0,0,.51,1.633L22.344,23.857a2.949,2.949,0,0,0-1.633-.51,2.747,2.747,0,0,0-1.582.459l-4.847-4.847a2.948,2.948,0,0,0,.51-1.633,2.907,2.907,0,0,0-2.908-2.908,2.94,2.94,0,0,0-2.908,2.908,2.747,2.747,0,0,0,.459,1.582l-4.8,4.8a2.948,2.948,0,0,0-1.633-.51A2.907,2.907,0,0,0,.1,26.1a3.033,3.033,0,0,0,2.857,3.061,2.9,2.9,0,0,0,2.4-4.541l4.8-4.8a2.867,2.867,0,0,0,3.265,0l4.847,4.847a2.949,2.949,0,0,0-.51,1.633,2.907,2.907,0,0,0,2.908,2.908,2.9,2.9,0,0,0,2.4-4.541L34.028,13.857a2.948,2.948,0,0,0,1.633.51,2.907,2.907,0,0,0,2.908-2.908A3,3,0,0,0,35.609,8.5ZM2.957,27.989A1.786,1.786,0,1,1,4.743,26.2,1.744,1.744,0,0,1,2.957,27.989ZM10.1,17.377a1.786,1.786,0,1,1,1.786,1.786A1.744,1.744,0,0,1,10.1,17.377ZM20.712,28.091A1.786,1.786,0,1,1,22.5,26.306,1.775,1.775,0,0,1,20.712,28.091Zm14.9-14.9a1.786,1.786,0,1,1,1.786-1.786A1.775,1.775,0,0,1,35.609,13.194Z" transform="translate(-0.1 -4.163)"/>
  <path id="Path_107" data-name="Path 107" d="M36,6.735v3.571H34.161v1.173H36V12.4h1.173v-.918h.357V12.4H38.7V11.326A2.925,2.925,0,0,0,40.743,8.52,2.974,2.974,0,0,0,38.7,5.714V2.092h1.531V.918H38.7V0H37.528V.918h-.357V0H36V.969a2.9,2.9,0,0,0-2.4,2.857A2.957,2.957,0,0,0,36,6.735Zm1.122,3.571V6.786h.357v3.52Zm2.4-1.786a1.779,1.779,0,0,1-.867,1.531V6.99A1.918,1.918,0,0,1,39.518,8.52ZM37.477,2.092v3.52H37.12V2.092Zm-1.48.1V5.51a1.761,1.761,0,0,1-1.224-1.684A1.654,1.654,0,0,1,36,2.194Z" transform="translate(-16.509)"/>
</svg>
