<svg xmlns="http://www.w3.org/2000/svg" viewBox="0 0 17.582 14.722">
  <defs>
    <style>
      .cls-1 {
        fill: #aeb756;
      }
    </style>
  </defs>
  <path id="Twitter_1_" class="cls-1" d="M92.272,2.981a6.521,6.521,0,0,1-2.3.891A3.614,3.614,0,0,0,87.349,2.7a3.663,3.663,0,0,0-3.61,3.7,5.166,5.166,0,0,0,.094.844A10.152,10.152,0,0,1,76.425,3.4a3.6,3.6,0,0,0-.469,1.875A3.9,3.9,0,0,0,77.55,8.373,3.333,3.333,0,0,1,75.909,7.9v.047a3.634,3.634,0,0,0,2.907,3.61,3.023,3.023,0,0,1-.938.141,2.883,2.883,0,0,1-.656-.047A3.678,3.678,0,0,0,80.6,14.234a7.077,7.077,0,0,1-4.454,1.594,5.1,5.1,0,0,1-.844-.047,10.1,10.1,0,0,0,5.532,1.641c6.611,0,10.268-5.626,10.268-10.5V6.451a6.974,6.974,0,0,0,1.782-1.922,6.435,6.435,0,0,1-2.063.563A4.614,4.614,0,0,0,92.272,2.981Z" transform="translate(-75.3 -2.7)"/>
</svg>
