<svg id="Weather" xmlns="http://www.w3.org/2000/svg" viewBox="0 0 23.936 25.236">
  <defs>
    <style>
      .cls-1 {
        fill: #231f20;
      }
    </style>
  </defs>
  <path id="Path_96" data-name="Path 96" class="cls-1" d="M22.254,11.97a4.412,4.412,0,0,1,7.867,2.765,4.2,4.2,0,0,1-.286,1.573,5.105,5.105,0,0,1,.715,1.049,5.31,5.31,0,0,0,.668-2.575A5.491,5.491,0,0,0,21.3,11.541,2.458,2.458,0,0,1,22.254,11.97Z" transform="translate(-11.144 -4.866)"/>
  <rect id="Rectangle_3" data-name="Rectangle 3" class="cls-1" width="11.539" height="1.097" transform="translate(6.771 21.886)"/>
  <path id="Path_97" data-name="Path 97" class="cls-1" d="M12.264,43.232a.668.668,0,0,1,0-1.335V40.8A1.76,1.76,0,0,0,10.5,42.564a1.731,1.731,0,0,0,1.764,1.764Z" transform="translate(-5.494 -21.346)"/>
  <path id="Path_98" data-name="Path 98" class="cls-1" d="M38.4,36.51a.632.632,0,0,0,.286.477.639.639,0,0,1,.381.62.652.652,0,0,1-.668.668v1.1a1.754,1.754,0,0,0,.763-3.338.521.521,0,0,0-.763.477Z" transform="translate(-20.091 -18.821)"/>
  <path id="Path_99" data-name="Path 99" class="cls-1" d="M38.4,46.9a.652.652,0,0,1,.668.668.744.744,0,0,1-.381.62.524.524,0,0,0-.286.477h0a.521.521,0,0,0,.763.477,1.815,1.815,0,0,0,1-1.573A1.76,1.76,0,0,0,38.4,45.8Z" transform="translate(-20.091 -23.962)"/>
  <path id="Path_100" data-name="Path 100" class="cls-1" d="M14.543,16.128a7.113,7.113,0,0,0-1,.1A7.257,7.257,0,1,0,6.771,27.095l11.539.048v-1.1L6.771,26a6.183,6.183,0,1,1,5.674-9.488,6.108,6.108,0,0,1,.524.954,3.743,3.743,0,0,1,1.049-.238c.143,0,.334-.048.477-.048a4.457,4.457,0,0,1,4.434,4.434,4.064,4.064,0,0,1-.143,1.1,3.179,3.179,0,0,1,1,.429,5.373,5.373,0,0,0,.238-1.526A5.454,5.454,0,0,0,14.543,16.128Z" transform="translate(0 -6.592)"/>
  <path id="Path_101" data-name="Path 101" class="cls-1" d="M44.193,36.054a.551.551,0,0,0-.763.477.632.632,0,0,0,.286.477.639.639,0,0,1,.381.62.652.652,0,0,1-.668.668h-.906a.529.529,0,0,0-.524.524h0a.529.529,0,0,0,.524.524h.811a1.767,1.767,0,0,0,1.812-1.526A1.6,1.6,0,0,0,44.193,36.054Z" transform="translate(-21.974 -18.841)"/>
  <path id="Path_102" data-name="Path 102" class="cls-1" d="M46.222,22.8h-2.1a.529.529,0,0,0-.524.524h0a.529.529,0,0,0,.524.524h2.1a.529.529,0,0,0,.524-.524h0A.564.564,0,0,0,46.222,22.8Z" transform="translate(-22.811 -11.929)"/>
  <path id="Path_103" data-name="Path 103" class="cls-1" d="M30.5.524v2.1a.529.529,0,0,0,.524.524h0a.529.529,0,0,0,.524-.524V.524A.529.529,0,0,0,31.024,0h0A.529.529,0,0,0,30.5.524Z" transform="translate(-15.957)"/>
  <path id="Path_104" data-name="Path 104" class="cls-1" d="M43.721,6.6,42.243,8.082a.58.58,0,0,0,0,.763h0a.58.58,0,0,0,.763,0l1.478-1.478a.58.58,0,0,0,0-.763h0A.5.5,0,0,0,43.721,6.6Z" transform="translate(-22.026 -3.362)"/>
  <path id="Path_105" data-name="Path 105" class="cls-1" d="M16.806,6.6l1.478,1.478a.58.58,0,0,1,0,.763h0a.58.58,0,0,1-.763,0L16.043,7.367a.58.58,0,0,1,0-.763h0A.5.5,0,0,1,16.806,6.6Z" transform="translate(-8.319 -3.362)"/>
</svg>
